HIERARCHY
ROOT Hips
{
	OFFSET 0.000000 83.208069 2.550922
	CHANNELS 6 Xposition Yposition Zposition Xrotation Yrotation Zrotation
	JOINT Pelvis
	{
		OFFSET 0.000000 0.000000 0.000000
		CHANNELS 3 Xrotation Yrotation Zrotation
		JOINT LeftUpLeg
		{
			OFFSET 8.479694 -4.795517 -0.379053
			CHANNELS 3 Xrotation Yrotation Zrotation
			JOINT LeftLeg
			{
				OFFSET 0.485052 -32.551468 0.112863
				CHANNELS 3 Xrotation Yrotation Zrotation
				JOINT LeftFoot
				{
					OFFSET 0.438033 -32.635670 -3.012641
					CHANNELS 3 Xrotation Yrotation Zrotation
					JOINT LeftToeBase
					{
						OFFSET 0.970169 -13.225353 11.864223
						CHANNELS 3 Xrotation Yrotation Zrotation
						End Site
						{
							OFFSET 0.000000 12.319231 0.000000
						}
					}
					JOINT LFootTongue
					{
						OFFSET 1.142399 -1.059789 6.665162
						CHANNELS 3 Xrotation Yrotation Zrotation
						End Site
						{
							OFFSET 0.000000 12.319230 0.000000
						}
					}
				}
				JOINT LeftPantLeg
				{
					OFFSET 1.152549 -16.519323 -2.284731
					CHANNELS 3 Xrotation Yrotation Zrotation
					End Site
					{
						OFFSET 0.000000 24.746851 0.000000
					}
				}
			}
		}
		JOINT RightUpLeg
		{
			OFFSET -8.479694 -4.795517 -0.379053
			CHANNELS 3 Xrotation Yrotation Zrotation
			JOINT RightLeg
			{
				OFFSET -0.484100 -32.551483 0.112903
				CHANNELS 3 Xrotation Yrotation Zrotation
				JOINT RightFoot
				{
					OFFSET -0.438985 -32.635651 -3.012681
					CHANNELS 3 Xrotation Yrotation Zrotation
					JOINT RightToeBase
					{
						OFFSET -0.970169 -13.225354 11.864223
						CHANNELS 3 Xrotation Yrotation Zrotation
						End Site
						{
							OFFSET 0.000000 12.319217 0.000000
						}
					}
					JOINT RFootTongue
					{
						OFFSET -1.142220 -1.059793 6.665161
						CHANNELS 3 Xrotation Yrotation Zrotation
						End Site
						{
							OFFSET 0.000000 12.319217 0.000000
						}
					}
				}
				JOINT RightPantLeg
				{
					OFFSET -1.153501 -16.519308 -2.284772
					CHANNELS 3 Xrotation Yrotation Zrotation
					End Site
					{
						OFFSET 0.000000 24.746878 0.000000
					}
				}
			}
		}
	}
	JOINT Spine
	{
		OFFSET 0.000000 7.722015 1.166203
		CHANNELS 3 Xrotation Yrotation Zrotation
		JOINT Spine1
		{
			OFFSET 0.000000 12.024086 0.248766
			CHANNELS 3 Xrotation Yrotation Zrotation
			JOINT Spine2
			{
				OFFSET -0.000000 11.503036 -0.491240
				CHANNELS 3 Xrotation Yrotation Zrotation
				JOINT Neck
				{
					OFFSET 0.000000 18.430687 -3.123054
					CHANNELS 3 Xrotation Yrotation Zrotation
					JOINT Head
					{
						OFFSET -0.000000 9.051071 1.034021
						CHANNELS 3 Xrotation Yrotation Zrotation
						JOINT HairB
						{
							OFFSET 0.208397 24.786072 24.822304
							CHANNELS 3 Xrotation Yrotation Zrotation
							End Site
							{
								OFFSET 0.000000 32.263794 0.000000
							}
						}
						JOINT HairA
						{
							OFFSET -7.081073 24.428299 23.196634
							CHANNELS 3 Xrotation Yrotation Zrotation
							End Site
							{
								OFFSET 0.000000 32.263779 0.000000
							}
						}
						JOINT Hat
						{
							OFFSET 16.728800 15.048309 -15.439650
							CHANNELS 3 Xrotation Yrotation Zrotation
							End Site
							{
								OFFSET 0.000000 32.263794 0.000000
							}
						}
					}
				}
				JOINT LeftShoulder
				{
					OFFSET 6.197824 13.665230 -4.064723
					CHANNELS 3 Xrotation Yrotation Zrotation
					JOINT LeftArm
					{
						OFFSET 7.778132 -0.187073 -1.709282
						CHANNELS 3 Xrotation Yrotation Zrotation
						JOINT LeftForeArm
						{
							OFFSET 21.954697 0.000000 -2.041093
							CHANNELS 3 Xrotation Yrotation Zrotation
							JOINT LeftHand
							{
								OFFSET 22.992908 0.000000 -0.870901
								CHANNELS 3 Xrotation Yrotation Zrotation
								JOINT LeftHandThumb1
								{
									OFFSET 3.593975 -1.460358 3.365570
									CHANNELS 3 Xrotation Yrotation Zrotation
									JOINT LeftHandThumb2
									{
										OFFSET 3.016712 -1.561966 2.119022
										CHANNELS 3 Xrotation Yrotation Zrotation
										JOINT LeftHandThumb3
										{
											OFFSET 3.029564 -2.099800 1.415844
											CHANNELS 3 Xrotation Yrotation Zrotation
											End Site
											{
												OFFSET 0.000000 3.948677 0.000000
											}
										}
									}
								}
								JOINT LeftHandIndex1
								{
									OFFSET 11.372505 0.065018 3.699154
									CHANNELS 3 Xrotation Yrotation Zrotation
									JOINT LeftHandIndex2
									{
										OFFSET 3.229195 -0.574921 -0.143498
										CHANNELS 3 Xrotation Yrotation Zrotation
										JOINT LeftHandIndex3
										{
											OFFSET 3.111160 -1.135635 -0.280794
											CHANNELS 3 Xrotation Yrotation Zrotation
											End Site
											{
												OFFSET 0.000000 3.323822 0.000000
											}
										}
									}
								}
								JOINT LeftHandMiddle1
								{
									OFFSET 11.327377 0.426697 -0.098180
									CHANNELS 3 Xrotation Yrotation Zrotation
									JOINT LeftHandMiddle2
									{
										OFFSET 3.290932 -0.875465 -0.186927
										CHANNELS 3 Xrotation Yrotation Zrotation
										JOINT LeftHandMiddle3
										{
											OFFSET 3.094551 -1.150223 -0.267588
											CHANNELS 3 Xrotation Yrotation Zrotation
											End Site
											{
												OFFSET 0.000000 3.312233 0.000000
											}
										}
									}
								}
								JOINT LeftHandRing1
								{
									OFFSET 11.497078 -0.008904 -3.070051
									CHANNELS 3 Xrotation Yrotation Zrotation
									JOINT LeftHandRing2
									{
										OFFSET 2.881340 -0.992859 -0.186928
										CHANNELS 3 Xrotation Yrotation Zrotation
										JOINT LeftHandRing3
										{
											OFFSET 3.022743 -1.281013 -0.290960
											CHANNELS 3 Xrotation Yrotation Zrotation
											End Site
											{
												OFFSET 0.000000 3.295853 0.000000
											}
										}
									}
								}
								JOINT LeftHandPinky1
								{
									OFFSET 10.529488 -1.373093 -5.625615
									CHANNELS 3 Xrotation Yrotation Zrotation
									JOINT LeftHandPinky2
									{
										OFFSET 2.679024 -0.950073 -0.330554
										CHANNELS 3 Xrotation Yrotation Zrotation
										JOINT LeftHandPinky3
										{
											OFFSET 2.724571 -0.843613 -0.252685
											CHANNELS 3 Xrotation Yrotation Zrotation
											End Site
											{
												OFFSET 0.000000 2.863358 0.000000
											}
										}
									}
								}
							}
							JOINT LSleeve
							{
								OFFSET 6.633202 -0.344879 -1.263650
								CHANNELS 3 Xrotation Yrotation Zrotation
								End Site
								{
									OFFSET 0.000000 14.885345 0.000000
								}
							}
						}
					}
				}
				JOINT RightShoulder
				{
					OFFSET -6.197824 13.665230 -4.064723
					CHANNELS 3 Xrotation Yrotation Zrotation
					JOINT RightArm
					{
						OFFSET -7.778132 -0.187073 -1.709282
						CHANNELS 3 Xrotation Yrotation Zrotation
						JOINT RightForeArm
						{
							OFFSET -21.954697 0.000000 -2.041093
							CHANNELS 3 Xrotation Yrotation Zrotation
							JOINT RightHand
							{
								OFFSET -22.992908 0.000000 -0.870901
								CHANNELS 3 Xrotation Yrotation Zrotation
								JOINT RightHandThumb1
								{
									OFFSET -3.593975 -1.460358 3.365570
									CHANNELS 3 Xrotation Yrotation Zrotation
									JOINT RightHandThumb2
									{
										OFFSET -3.016712 -1.561966 2.119022
										CHANNELS 3 Xrotation Yrotation Zrotation
										JOINT RightHandThumb3
										{
											OFFSET -3.029564 -2.099800 1.415844
											CHANNELS 3 Xrotation Yrotation Zrotation
											End Site
											{
												OFFSET 0.000000 3.948677 0.000000
											}
										}
									}
								}
								JOINT RightHandIndex1
								{
									OFFSET -11.372513 0.065018 3.699154
									CHANNELS 3 Xrotation Yrotation Zrotation
									JOINT RightHandIndex2
									{
										OFFSET -3.229187 -0.574921 -0.143498
										CHANNELS 3 Xrotation Yrotation Zrotation
										JOINT RightHandIndex3
										{
											OFFSET -3.111160 -1.135635 -0.280794
											CHANNELS 3 Xrotation Yrotation Zrotation
											End Site
											{
												OFFSET 0.000000 3.323822 0.000000
											}
										}
									}
								}
								JOINT RightHandMiddle1
								{
									OFFSET -11.327377 0.426697 -0.098180
									CHANNELS 3 Xrotation Yrotation Zrotation
									JOINT RightHandMiddle2
									{
										OFFSET -3.290932 -0.875465 -0.186927
										CHANNELS 3 Xrotation Yrotation Zrotation
										JOINT RightHandMiddle3
										{
											OFFSET -3.094551 -1.150223 -0.267588
											CHANNELS 3 Xrotation Yrotation Zrotation
											End Site
											{
												OFFSET 0.000000 3.312233 0.000000
											}
										}
									}
								}
								JOINT RightHandRing1
								{
									OFFSET -11.497078 -0.008904 -3.070051
									CHANNELS 3 Xrotation Yrotation Zrotation
									JOINT RightHandRing2
									{
										OFFSET -2.881340 -0.992859 -0.186928
										CHANNELS 3 Xrotation Yrotation Zrotation
										JOINT RightHandRing3
										{
											OFFSET -3.022743 -1.281013 -0.290960
											CHANNELS 3 Xrotation Yrotation Zrotation
											End Site
											{
												OFFSET 0.000000 3.295853 0.000000
											}
										}
									}
								}
								JOINT RightHandPinky1
								{
									OFFSET -10.529488 -1.373093 -5.625615
									CHANNELS 3 Xrotation Yrotation Zrotation
									JOINT RightHandPinky2
									{
										OFFSET -2.679024 -0.950073 -0.330554
										CHANNELS 3 Xrotation Yrotation Zrotation
										JOINT RightHandPinky3
										{
											OFFSET -2.724571 -0.843613 -0.252685
											CHANNELS 3 Xrotation Yrotation Zrotation
											End Site
											{
												OFFSET 0.000000 2.863358 0.000000
											}
										}
									}
								}
							}
							JOINT RSleeve
							{
								OFFSET -6.633202 -0.344879 -1.263650
								CHANNELS 3 Xrotation Yrotation Zrotation
								End Site
								{
									OFFSET 0.000000 14.885345 0.000000
								}
							}
						}
					}
				}
				JOINT Backpack
				{
					OFFSET -0.000000 -2.471489 36.677479
					CHANNELS 3 Xrotation Yrotation Zrotation
					End Site
					{
						OFFSET 0.000000 20.427322 0.000000
					}
				}
				JOINT Hood
				{
					OFFSET -0.000000 18.754143 -10.430963
					CHANNELS 3 Xrotation Yrotation Zrotation
					JOINT Hood1
					{
						OFFSET -0.000000 -5.011017 -7.685929
						CHANNELS 3 Xrotation Yrotation Zrotation
						End Site
						{
							OFFSET 0.000000 9.175171 0.000000
						}
					}
				}
				JOINT LHoodieString
				{
					OFFSET 5.250455 16.397728 3.089918
					CHANNELS 3 Xrotation Yrotation Zrotation
					JOINT LHoodieString1
					{
						OFFSET 0.257711 -6.364296 3.694587
						CHANNELS 3 Xrotation Yrotation Zrotation
						JOINT LHoodieString2
						{
							OFFSET 0.000000 -9.643806 2.679132
							CHANNELS 3 Xrotation Yrotation Zrotation
							End Site
							{
								OFFSET 0.000000 10.009033 0.000000
							}
						}
					}
				}
				JOINT RHoodieString
				{
					OFFSET -5.250455 16.397728 3.089918
					CHANNELS 3 Xrotation Yrotation Zrotation
					JOINT RHoodieString1
					{
						OFFSET -0.257711 -6.364296 3.694587
						CHANNELS 3 Xrotation Yrotation Zrotation
						JOINT RHoodieString2
						{
							OFFSET 0.000000 -9.643806 2.679132
							CHANNELS 3 Xrotation Yrotation Zrotation
							End Site
							{
								OFFSET 0.000000 10.009033 0.000000
							}
						}
					}
				}
			}
			JOINT LBackpack_Strap
			{
				OFFSET 15.223173 -7.719788 -6.610897
				CHANNELS 3 Xrotation Yrotation Zrotation
				End Site
				{
					OFFSET 0.000000 16.040596 0.000000
				}
			}
			JOINT RBackpack_Strap
			{
				OFFSET -15.223000 -7.719788 -6.610897
				CHANNELS 3 Xrotation Yrotation Zrotation
				End Site
				{
					OFFSET 0.000000 16.040596 0.000000
				}
			}
		}
	}
	JOINT BoyFacialAnim_Joint
	{
		OFFSET 1.000000 -82.208069 -1.550922
		CHANNELS 3 Xrotation Yrotation Zrotation
		End Site
		{
			OFFSET 0.000000 30.012787 0.000000
		}
	}
}
MOTION
Frames: 4
Frame Time: 0.016667
-0.446249 85.977112 6.139054 89.450930 1.014155 4.275278 -0.000000 -0.000000 0.000000 -13.382829 1.945249 8.081263 19.085644 0.170406 -0.784881 19.040069 -0.177361 -15.131929 -0.000001 -0.000001 -0.000001 -0.000001 -0.000000 -0.000000 0.000000 0.000000 0.000001 -26.759380 -54.586742 -28.809079 14.110811 -0.403483 0.405746 13.787567 40.442745 19.862412 0.000001 -0.000001 0.000002 0.000001 -0.000001 0.000002 -0.000000 0.000000 0.000000 -1.164046 0.652031 -0.624027 -2.316035 1.317258 -1.535885 -2.316052 1.317257 -1.535886 -9.789824 1.583973 -0.348993 2.502155 5.858927 -13.077553 -0.000000 0.000000 0.000001 -0.000000 0.000000 0.000001 -0.000000 0.000000 0.000001 0.301163 -2.573215 -7.759592 3.139301 14.087534 -22.913495 -12.663400 -132.459225 -2.447522 52.231020 14.351710 41.564863 -38.746751 -4.714422 -31.052024 -5.194025 -4.728714 11.998051 0.000003 -0.000002 0.000001 -3.339811 -3.326281 -44.256962 -13.136189 -1.489401 -32.415941 -0.000001 -0.000000 0.000000 -6.355045 -2.956533 -41.753278 -10.370399 -2.344223 -34.157499 -0.000000 0.000000 0.000000 -5.782398 2.323084 -31.416435 -11.348102 -4.001180 -58.149246 0.000002 0.000000 0.000001 -8.334492 -5.519135 -45.484149 -6.760495 -7.876104 -39.158557 0.000001 -0.000000 -0.000000 -0.000002 0.000001 -0.000002 0.363586 1.823640 6.234472 -12.318697 -26.836117 17.041274 -0.035863 136.553841 -0.041541 53.365583 -14.041574 -29.404367 -16.923144 -0.211777 -21.136794 -2.724565 -4.064567 -6.517519 0.000001 -0.000001 0.000000 -11.306583 4.606877 14.149551 -14.883416 4.647928 39.361608 0.000001 0.000000 0.000002 -3.845770 1.968988 -1.859887 -14.476473 1.251577 53.799600 0.000001 0.000001 -0.000001 -3.222409 -3.786723 -9.375111 -18.073997 9.470696 73.579845 -0.000001 0.000000 -0.000000 1.612765 3.726847 1.429299 -13.091938 10.890502 55.935930 0.000002 0.000000 -0.000000 0.000002 0.000000 0.000001 -0.000000 0.000000 -0.000000 -0.000000 0.000000 -0.000000 -0.000000 0.000000 -0.000000 -0.000000 0.000000 -0.000000 -0.000000 0.000000 0.000000 -0.000000 0.000000 -0.000000 -0.000000 0.000000 -0.000000 -0.000000 0.000000 -0.000000 -0.000000 0.000000 0.000000 -0.000000 0.000000 0.000000 -0.000000 0.000000 0.000000 -0.000000 -0.000000 0.000000 
-0.445368 85.988914 6.134125 89.442188 1.006735 4.284249 -0.000000 -0.000000 -0.000000 -13.355539 1.980468 8.095974 18.998673 0.150982 -0.782963 19.093478 -0.234319 -15.373492 -0.000005 -0.000000 0.000000 -0.000005 0.000001 0.000000 0.000001 0.000000 0.000001 -26.639285 -54.428907 -28.677007 14.102305 -0.398229 0.405886 13.648890 40.321591 20.020833 -0.000000 0.000001 -0.000000 -0.000000 0.000001 -0.000000 -0.000000 0.000000 0.000000 -1.161154 0.660064 -0.619198 -2.310165 1.333088 -1.525447 -2.310152 1.333087 -1.525447 -9.900959 1.586345 -0.318186 2.520841 5.884361 -13.149400 0.000000 0.000000 -0.000000 0.000000 0.000000 -0.000000 0.000000 0.000000 -0.000000 0.299687 -2.565764 -7.772989 3.103858 14.014040 -22.932775 -12.651318 -132.382399 -2.444678 52.228121 14.322721 41.573350 -38.779130 -4.754883 -31.084768 -5.182380 -4.699561 11.990541 -0.000001 0.000000 0.000001 -3.321799 -3.306922 -44.179914 -13.108426 -1.492625 -32.289074 -0.000001 0.000000 0.000000 -6.333120 -2.944767 -41.736701 -10.350053 -2.342449 -34.067365 0.000000 0.000001 -0.000000 -5.860741 2.342179 -31.286986 -11.339733 -3.999931 -58.094741 0.000001 0.000000 0.000000 -8.402402 -5.536902 -45.522173 -6.752000 -7.870176 -39.111333 0.000001 0.000000 0.000000 -0.000000 -0.000001 -0.000001 0.364487 1.899047 6.253029 -12.490758 -26.968005 17.179920 -0.036037 136.661116 -0.041160 53.495199 -13.963950 -29.249377 -17.020370 0.017806 -21.045918 -2.742092 -4.025726 -6.524730 0.000000 -0.000001 -0.000000 -11.630482 5.071878 15.506886 -14.994649 4.657088 40.353318 -0.000003 -0.000001 -0.000000 -4.272930 2.602207 0.852736 -15.002007 1.204572 56.013367 -0.000000 -0.000000 -0.000000 -3.464083 -3.502507 -7.489662 -18.082506 9.468316 73.613334 -0.000002 -0.000001 -0.000000 1.628478 3.599955 1.872144 -12.880024 10.870359 55.266404 -0.000002 -0.000000 0.000000 -0.000000 -0.000001 -0.000000 -0.000000 0.000000 -0.000000 -0.000000 0.000000 -0.000000 -0.000000 0.000000 -0.000000 -0.000000 0.000000 -0.000000 -0.000000 0.000000 -0.000000 -0.000000 0.000000 -0.000000 -0.000000 0.000000 -0.000000 -0.000000 0.000000 -0.000000 -0.000000 0.000000 -0.000000 -0.000000 0.000000 -0.000000 -0.000000 0.000000 -0.000000 -0.000000 -0.000000 -0.000000 
-0.446134 86.003822 6.130242 89.427967 1.008267 4.296291 0.000000 -0.000000 0.000000 -13.331311 1.999663 8.103951 18.922050 0.133155 -0.781275 19.138398 -0.292156 -15.585464 -0.000000 -0.000001 0.000001 0.000000 -0.000000 0.000001 -0.000000 -0.000000 0.000001 -26.506193 -54.258309 -28.537369 14.091201 -0.393196 0.405766 13.502802 40.179510 20.185801 0.000000 0.000000 -0.000002 0.000000 0.000000 -0.000002 0.000000 0.000000 -0.000000 -1.157013 0.665967 -0.615339 -2.301884 1.344655 -1.517198 -2.301874 1.344653 -1.517199 -10.017180 1.590682 -0.290128 2.538480 5.913938 -13.218382 -0.000000 0.000001 -0.000000 -0.000000 0.000001 -0.000000 -0.000000 0.000001 -0.000000 0.300351 -2.517160 -7.770264 3.051368 13.861328 -23.043221 -12.685429 -132.276094 -2.459993 52.268829 14.204440 41.552310 -38.801902 -4.781074 -31.109965 -5.171993 -4.673617 11.983864 -0.000001 0.000002 -0.000001 -3.306842 -3.290395 -44.112534 -13.082851 -1.495516 -32.172131 0.000000 0.000000 -0.000000 -6.304362 -2.930253 -41.711689 -10.329609 -2.340641 -33.976892 -0.000000 0.000000 0.000000 -5.950255 2.361258 -31.152568 -11.331347 -3.998694 -58.040270 0.000002 0.000000 -0.000000 -8.464898 -5.553640 -45.579970 -6.743955 -7.864577 -39.066763 -0.000003 -0.000000 -0.000000 -0.000000 0.000000 -0.000002 0.364653 1.983891 6.282214 -12.697387 -27.112123 17.349656 -0.036234 136.766670 -0.040685 53.647779 -13.852334 -29.077977 -17.124032 0.259471 -20.947690 -2.762567 -3.980389 -6.533237 0.000000 0.000001 0.000000 -11.989305 5.573619 16.964330 -15.104390 4.666825 41.381750 -0.000000 0.000000 -0.000000 -4.754429 3.261124 3.727418 -15.560834 1.132213 58.376814 -0.000002 -0.000001 0.000001 -3.734712 -3.204605 -5.504084 -18.090210 9.466172 73.643748 0.000000 -0.000000 0.000001 1.648478 3.471767 2.300654 -12.657818 10.847186 54.567833 -0.000000 0.000000 0.000000 -0.000000 -0.000001 0.000002 0.000000 -0.000000 0.000000 0.000000 -0.000000 0.000000 0.000000 -0.000000 0.000000 0.000000 -0.000000 0.000000 0.000000 -0.000000 0.000000 0.000000 -0.000000 -0.000000 0.000000 -0.000000 0.000000 0.000000 -0.000000 0.000000 0.000000 -0.000000 0.000000 -0.000000 -0.000000 0.000000 -0.000000 -0.000000 0.000000 0.000000 -0.000000 0.000000 
-0.451052 86.027130 6.129110 89.398201 1.030655 4.315381 -0.000000 0.000000 -0.000000 -13.315040 1.983367 8.095698 18.873406 0.119077 -0.780212 19.167101 -0.340548 -15.718383 -0.000001 -0.000000 -0.000000 -0.000000 0.000000 0.000000 0.000001 0.000001 0.000001 -26.338524 -54.058297 -28.377846 14.073654 -0.388398 0.405247 13.338546 39.992523 20.366463 -0.000000 -0.000000 -0.000000 -0.000000 -0.000000 -0.000000 -0.000000 0.000001 -0.000000 -1.148385 0.667763 -0.613593 -2.284590 1.347991 -1.513990 -2.284570 1.347989 -1.513991 -10.150568 1.599590 -0.263857 2.547896 5.959469 -13.282921 -0.000001 0.000000 0.000000 -0.000001 0.000000 0.000000 -0.000001 0.000000 0.000000 0.300465 -2.491776 -7.774149 2.994441 13.724796 -23.113452 -12.692913 -132.152822 -2.462697 52.296262 14.123878 41.578958 -38.803199 -4.782161 -31.110996 -5.162413 -4.649638 11.977669 -0.000001 0.000001 -0.000001 -3.301124 -3.282810 -44.083018 -13.062407 -1.497734 -32.077584 -0.000000 0.000000 0.000000 -6.255618 -2.908752 -41.676708 -10.307678 -2.338682 -33.879746 -0.000001 0.000000 -0.000000 -6.065905 2.379858 -31.012460 -11.322340 -3.997374 -57.981776 0.000001 0.000000 0.000002 -8.516639 -5.568713 -45.693563 -6.738196 -7.860586 -39.035101 -0.000001 0.000000 -0.000000 0.000002 0.000001 -0.000001 0.363551 2.096200 6.336743 -12.987721 -27.302344 17.589858 -0.036543 136.878261 -0.039993 53.858395 -13.667018 -28.882729 -17.250806 0.549216 -20.826090 -2.794792 -3.909228 -6.546885 0.000001 -0.000000 0.000001 -12.421671 6.142366 18.565953 -15.177247 4.687277 42.314972 -0.000003 0.000000 -0.000000 -5.323070 3.963711 6.761876 -16.145343 1.031729 60.862866 -0.000002 0.000000 -0.000000 -4.058104 -2.883607 -3.443850 -18.090874 9.465996 73.646323 0.000001 0.000000 0.000001 1.664623 3.366734 2.705232 -12.418788 10.818195 53.811126 -0.000001 -0.000000 -0.000000 -0.000001 -0.000003 0.000003 -0.000000 -0.000000 -0.000000 -0.000000 -0.000000 -0.000000 -0.000000 -0.000000 -0.000000 -0.000000 -0.000000 -0.000000 -0.000000 -0.000000 -0.000000 -0.000000 -0.000000 -0.000000 -0.000000 -0.000000 -0.000000 -0.000000 -0.000000 -0.000000 -0.000000 -0.000000 -0.000000 -0.000000 0.000000 0.000000 -0.000000 0.000000 0.000000 -0.000000 0.000000 -0.000000 
